<svg xmlns="http://www.w3.org/2000/svg" xmlns:xlink="http://www.w3.org/1999/xlink" width="100" zoomAndPan="magnify" viewBox="0 0 75 30.000001" height="40" preserveAspectRatio="xMidYMid meet" version="1.0"><defs><g/></defs><g fill="#ffffff" fill-opacity="1"><g transform="translate(6.159918, 19.233873)"><g><path d="M 3.578125 -7.953125 C 2.609375 -6.640625 1.847656 -5.359375 1.296875 -4.109375 C 0.753906 -2.859375 0.484375 -1.8125 0.484375 -0.96875 C 0.484375 -0.125 0.804688 0.296875 1.453125 0.296875 C 2.335938 0.296875 4.113281 -0.597656 6.78125 -2.390625 L 8.25 -3.3125 C 8.34375 -3.363281 8.445312 -3.390625 8.5625 -3.390625 C 8.6875 -3.390625 8.75 -3.375 8.75 -3.34375 C 8.75 -3.320312 8.722656 -3.296875 8.671875 -3.265625 L 7.109375 -2.3125 C 6.929688 -2.1875 6.523438 -1.910156 5.890625 -1.484375 C 5.253906 -1.054688 4.785156 -0.75 4.484375 -0.5625 C 4.179688 -0.375 3.78125 -0.144531 3.28125 0.125 C 2.351562 0.664062 1.59375 0.9375 1 0.9375 C 0.0703125 0.9375 -0.390625 0.238281 -0.390625 -1.15625 C -0.390625 -2.0625 -0.113281 -3.148438 0.4375 -4.421875 C 0.988281 -5.703125 1.757812 -7.003906 2.75 -8.328125 C 3.738281 -9.648438 4.851562 -10.882812 6.09375 -12.03125 C 7.332031 -13.175781 8.722656 -14.113281 10.265625 -14.84375 C 11.816406 -15.570312 13.328125 -15.9375 14.796875 -15.9375 C 15.585938 -15.9375 15.984375 -15.632812 15.984375 -15.03125 C 15.984375 -14.300781 15.5 -13.304688 14.53125 -12.046875 C 13.5625 -10.796875 12.429688 -9.675781 11.140625 -8.6875 C 9.859375 -7.707031 8.832031 -7.21875 8.0625 -7.21875 C 7.71875 -7.21875 7.546875 -7.320312 7.546875 -7.53125 C 7.546875 -7.675781 7.703125 -7.910156 8.015625 -8.234375 C 8.328125 -8.554688 8.578125 -8.71875 8.765625 -8.71875 C 8.828125 -8.71875 8.859375 -8.691406 8.859375 -8.640625 C 8.859375 -8.585938 8.765625 -8.476562 8.578125 -8.3125 C 8.398438 -8.144531 8.3125 -8.035156 8.3125 -7.984375 C 8.3125 -7.941406 8.328125 -7.921875 8.359375 -7.921875 C 8.785156 -7.921875 9.59375 -8.367188 10.78125 -9.265625 C 11.976562 -10.160156 13.097656 -11.1875 14.140625 -12.34375 C 15.179688 -13.5 15.703125 -14.375 15.703125 -14.96875 C 15.703125 -15.445312 15.335938 -15.6875 14.609375 -15.6875 C 13.367188 -15.6875 12.046875 -15.3125 10.640625 -14.5625 C 9.242188 -13.8125 7.957031 -12.851562 6.78125 -11.6875 C 5.613281 -10.519531 4.546875 -9.273438 3.578125 -7.953125 Z M 3.578125 -7.953125 "/></g></g></g><g fill="#ffffff" fill-opacity="1"><g transform="translate(12.533107, 19.233873)"><g><path d="M 6.921875 -9.265625 L 3.765625 -5.59375 C 4.910156 -6.363281 6.671875 -7.957031 9.046875 -10.375 C 11.421875 -12.789062 12.609375 -14.234375 12.609375 -14.703125 C 12.609375 -14.773438 12.570312 -14.8125 12.5 -14.8125 C 12.425781 -14.8125 12.347656 -14.789062 12.265625 -14.75 C 11.328125 -14.226562 10.179688 -13.160156 8.828125 -11.546875 C 8.773438 -11.492188 8.472656 -11.132812 7.921875 -10.46875 C 7.378906 -9.8125 7.046875 -9.410156 6.921875 -9.265625 Z M 13.140625 -14.9375 C 13.140625 -14.257812 11.878906 -12.671875 9.359375 -10.171875 C 6.847656 -7.671875 4.742188 -5.859375 3.046875 -4.734375 L 2.703125 -4.328125 C 2.335938 -3.992188 1.601562 -3.085938 0.5 -1.609375 C 0.414062 -1.460938 0.375 -1.378906 0.375 -1.359375 C 0.375 -1.347656 0.382812 -1.34375 0.40625 -1.34375 C 0.425781 -1.34375 0.507812 -1.390625 0.65625 -1.484375 C 0.800781 -1.578125 1.34375 -1.96875 2.28125 -2.65625 C 4.457031 -4.238281 6.046875 -5.273438 7.046875 -5.765625 C 7.128906 -5.796875 7.1875 -5.8125 7.21875 -5.8125 C 7.375 -5.8125 7.453125 -5.675781 7.453125 -5.40625 C 7.453125 -5.132812 7.242188 -4.71875 6.828125 -4.15625 C 6.410156 -3.601562 5.945312 -3.085938 5.4375 -2.609375 C 4.070312 -1.316406 3.390625 -0.59375 3.390625 -0.4375 C 3.390625 -0.34375 3.421875 -0.296875 3.484375 -0.296875 C 4.296875 -0.566406 5.003906 -0.878906 5.609375 -1.234375 L 7.75 -2.59375 L 7.765625 -2.3125 C 6.242188 -1.289062 5.109375 -0.640625 4.359375 -0.359375 C 3.609375 -0.0859375 3.128906 0.046875 2.921875 0.046875 C 2.710938 0.046875 2.609375 -0.0195312 2.609375 -0.15625 C 2.609375 -0.414062 2.976562 -0.9375 3.71875 -1.71875 C 4.457031 -2.5 5.191406 -3.265625 5.921875 -4.015625 C 6.660156 -4.765625 7.03125 -5.207031 7.03125 -5.34375 C 7.03125 -5.375 7.003906 -5.390625 6.953125 -5.390625 C 6.765625 -5.390625 5.863281 -4.84375 4.25 -3.75 C 2.644531 -2.664062 1.441406 -1.816406 0.640625 -1.203125 C -0.160156 -0.585938 -0.601562 -0.234375 -0.6875 -0.140625 C -0.78125 -0.046875 -1.007812 0.0195312 -1.375 0.0625 C -1.519531 0.0625 -1.59375 0.0234375 -1.59375 -0.046875 C -1.59375 -0.117188 -1.488281 -0.289062 -1.28125 -0.5625 C -0.238281 -1.84375 1.441406 -3.832031 3.765625 -6.53125 C 6.085938 -9.238281 7.332031 -10.675781 7.5 -10.84375 C 7.675781 -11.007812 7.925781 -11.257812 8.25 -11.59375 C 8.582031 -11.925781 8.875 -12.21875 9.125 -12.46875 C 9.375 -12.726562 9.695312 -13.039062 10.09375 -13.40625 C 10.5 -13.78125 10.847656 -14.085938 11.140625 -14.328125 C 11.878906 -14.941406 12.421875 -15.25 12.765625 -15.25 C 12.867188 -15.25 12.957031 -15.210938 13.03125 -15.140625 C 13.101562 -15.078125 13.140625 -15.007812 13.140625 -14.9375 Z M 13.140625 -14.9375 "/></g></g></g><g fill="#ffffff" fill-opacity="1"><g transform="translate(19.53709, 19.233873)"><g><path d="M 5.4375 -7.25 C 5.1875 -7.25 5.0625 -7.359375 5.0625 -7.578125 C 5.0625 -7.804688 5.171875 -8.019531 5.390625 -8.21875 C 5.609375 -8.425781 5.789062 -8.53125 5.9375 -8.53125 C 6.09375 -8.53125 6.210938 -8.484375 6.296875 -8.390625 C 6.378906 -8.304688 6.421875 -8.207031 6.421875 -8.09375 C 6.421875 -7.976562 6.316406 -7.804688 6.109375 -7.578125 C 5.910156 -7.359375 5.6875 -7.25 5.4375 -7.25 Z M -0.0625 -0.375 C 0.09375 -0.726562 0.734375 -1.550781 1.859375 -2.84375 C 2.984375 -4.132812 3.835938 -5.070312 4.421875 -5.65625 C 4.503906 -5.769531 4.546875 -5.851562 4.546875 -5.90625 C 4.546875 -5.957031 4.488281 -5.988281 4.375 -6 L 3.875 -6.046875 C 3.757812 -6.046875 3.648438 -5.988281 3.546875 -5.875 C 2.554688 -4.875 1.625 -3.78125 0.75 -2.59375 C -0.125 -1.414062 -0.5625 -0.6875 -0.5625 -0.40625 C -0.5625 -0.125 -0.472656 0.015625 -0.296875 0.015625 C -0.0664062 0.015625 0.398438 -0.171875 1.109375 -0.546875 C 1.816406 -0.929688 2.46875 -1.320312 3.0625 -1.71875 L 3.953125 -2.3125 L 3.9375 -2.59375 C 1.601562 -1.050781 0.304688 -0.28125 0.046875 -0.28125 C -0.0234375 -0.28125 -0.0625 -0.3125 -0.0625 -0.375 Z M -0.0625 -0.375 "/></g></g></g><g fill="#ffffff" fill-opacity="1"><g transform="translate(22.756317, 19.233873)"><g><path d="M 0.484375 -2.125 L 0.40625 -2.390625 L 1.125 -2.84375 C 2.21875 -3.570312 2.898438 -4.082031 3.171875 -4.375 C 3.453125 -4.675781 3.617188 -4.863281 3.671875 -4.9375 C 4.046875 -5.414062 4.257812 -5.679688 4.3125 -5.734375 C 4.476562 -5.679688 4.5625 -5.507812 4.5625 -5.21875 C 4.269531 -4.800781 3.878906 -4.296875 3.390625 -3.703125 C 2.898438 -3.117188 2.492188 -2.632812 2.171875 -2.25 C 1.859375 -1.863281 1.703125 -1.640625 1.703125 -1.578125 C 1.703125 -1.523438 1.710938 -1.5 1.734375 -1.5 C 1.753906 -1.5 1.859375 -1.570312 2.046875 -1.71875 C 2.242188 -1.875 2.78125 -2.257812 3.65625 -2.875 C 5.40625 -4.09375 6.519531 -4.863281 7 -5.1875 C 7.476562 -5.507812 7.785156 -5.671875 7.921875 -5.671875 C 8.066406 -5.671875 8.140625 -5.53125 8.140625 -5.25 C 8.140625 -4.96875 7.921875 -4.539062 7.484375 -3.96875 C 7.046875 -3.40625 6.566406 -2.890625 6.046875 -2.421875 C 4.648438 -1.140625 3.953125 -0.429688 3.953125 -0.296875 C 3.953125 -0.285156 3.984375 -0.28125 4.046875 -0.28125 C 4.222656 -0.28125 5.203125 -0.851562 6.984375 -2 L 7.875 -2.59375 L 7.890625 -2.3125 C 5.554688 -0.757812 4.132812 0.015625 3.625 0.015625 C 3.539062 0.015625 3.5 -0.0234375 3.5 -0.109375 C 3.5 -0.640625 3.835938 -1.269531 4.515625 -2 C 5.191406 -2.738281 5.863281 -3.398438 6.53125 -3.984375 C 7.195312 -4.578125 7.53125 -4.96875 7.53125 -5.15625 C 7.53125 -5.1875 7.515625 -5.203125 7.484375 -5.203125 C 7.054688 -4.992188 6.078125 -4.347656 4.546875 -3.265625 C 3.023438 -2.191406 2.132812 -1.5625 1.875 -1.375 C 1.1875 -0.863281 0.820312 -0.597656 0.78125 -0.578125 C 0.75 -0.554688 0.675781 -0.476562 0.5625 -0.34375 C 0.300781 -0.0703125 0.0625 0.0625 -0.15625 0.0625 C -0.5 0.03125 -0.679688 0.0078125 -0.703125 0 C -0.710938 -0.0078125 -0.71875 -0.0234375 -0.71875 -0.046875 C -0.71875 -0.0546875 -0.59375 -0.191406 -0.34375 -0.453125 C -0.113281 -0.703125 0.113281 -0.953125 0.34375 -1.203125 C 1.113281 -2.054688 1.644531 -2.660156 1.9375 -3.015625 Z M 0.484375 -2.125 "/></g></g></g><g fill="#ffffff" fill-opacity="1"><g transform="translate(29.890807, 19.233873)"><g><path d="M 7.15625 -2.59375 L 7.171875 -2.3125 C 4.835938 -0.757812 3.421875 0.015625 2.921875 0.015625 C 2.828125 0.015625 2.78125 -0.03125 2.78125 -0.125 C 2.78125 -0.4375 2.894531 -0.875 3.125 -1.4375 L 3.234375 -1.734375 C 3.234375 -1.765625 3.207031 -1.78125 3.15625 -1.78125 C 3.113281 -1.78125 2.691406 -1.488281 1.890625 -0.90625 C 1.109375 -0.332031 0.597656 -0.046875 0.359375 -0.046875 C 0.117188 -0.046875 0 -0.265625 0 -0.703125 C 0 -1.898438 0.679688 -3.070312 2.046875 -4.21875 C 3.421875 -5.363281 5.070312 -5.9375 7 -5.9375 C 7.175781 -5.9375 7.265625 -5.863281 7.265625 -5.71875 C 7.265625 -5.570312 6.582031 -4.726562 5.21875 -3.1875 C 3.851562 -1.644531 3.171875 -0.710938 3.171875 -0.390625 C 3.171875 -0.328125 3.210938 -0.296875 3.296875 -0.296875 C 3.390625 -0.296875 3.757812 -0.484375 4.40625 -0.859375 C 5.0625 -1.242188 5.679688 -1.625 6.265625 -2 Z M 3.703125 -2.5625 C 3.941406 -2.75 4.414062 -3.25 5.125 -4.0625 C 5.84375 -4.875 6.203125 -5.347656 6.203125 -5.484375 C 6.203125 -5.535156 6.144531 -5.5625 6.03125 -5.5625 C 5.363281 -5.5625 4.585938 -5.253906 3.703125 -4.640625 C 2.816406 -4.023438 2.0625 -3.328125 1.4375 -2.546875 C 0.820312 -1.765625 0.515625 -1.132812 0.515625 -0.65625 C 0.515625 -0.5625 0.554688 -0.515625 0.640625 -0.515625 C 0.734375 -0.515625 0.878906 -0.566406 1.078125 -0.671875 C 1.273438 -0.785156 1.515625 -0.941406 1.796875 -1.140625 C 2.078125 -1.335938 2.316406 -1.507812 2.515625 -1.65625 C 3.210938 -2.175781 3.609375 -2.476562 3.703125 -2.5625 Z M 3.703125 -2.5625 "/></g></g></g><g fill="#ffffff" fill-opacity="1"><g transform="translate(36.307499, 19.233873)"><g/></g></g><g fill="#ffffff" fill-opacity="1"><g transform="translate(41.092831, 19.233873)"><g><path d="M 17.046875 -15.9375 C 17.046875 -16.070312 16.972656 -16.140625 16.828125 -16.140625 C 16.265625 -16.140625 14.945312 -15.050781 12.875 -12.875 C 13.863281 -13.050781 14.804688 -13.507812 15.703125 -14.25 C 16.597656 -14.988281 17.046875 -15.550781 17.046875 -15.9375 Z M 4.265625 -14.03125 C 4.265625 -13.632812 3.859375 -13.007812 3.046875 -12.15625 C 2.242188 -11.3125 1.5625 -10.890625 1 -10.890625 C 0.59375 -10.890625 0.390625 -11.070312 0.390625 -11.4375 C 0.390625 -12.144531 0.945312 -12.984375 2.0625 -13.953125 C 3.175781 -14.921875 4.414062 -15.40625 5.78125 -15.40625 C 6.25 -15.40625 6.828125 -15.210938 7.515625 -14.828125 C 8.210938 -14.441406 8.960938 -14.03125 9.765625 -13.59375 C 10.578125 -13.15625 11.3125 -12.898438 11.96875 -12.828125 C 14.394531 -15.234375 16.046875 -16.4375 16.921875 -16.4375 C 17.265625 -16.4375 17.4375 -16.304688 17.4375 -16.046875 C 17.4375 -15.546875 16.929688 -14.898438 15.921875 -14.109375 C 14.921875 -13.316406 13.832031 -12.828125 12.65625 -12.640625 C 10.425781 -10.253906 8.015625 -7.398438 5.421875 -4.078125 C 2.835938 -0.753906 1.546875 1.125 1.546875 1.5625 C 1.546875 1.601562 1.5625 1.625 1.59375 1.625 C 1.632812 1.625 1.679688 1.609375 1.734375 1.578125 C 1.785156 1.554688 1.84375 1.523438 1.90625 1.484375 C 1.96875 1.453125 2.019531 1.421875 2.0625 1.390625 C 2.101562 1.359375 2.128906 1.34375 2.140625 1.34375 C 2.160156 1.34375 2.171875 1.363281 2.171875 1.40625 C 2.171875 1.570312 1.921875 1.832031 1.421875 2.1875 C 0.921875 2.550781 0.578125 2.734375 0.390625 2.734375 C 0.160156 2.734375 0.046875 2.601562 0.046875 2.34375 C 0.046875 1.664062 1.351562 -0.351562 3.96875 -3.71875 C 6.582031 -7.082031 9.15625 -10.035156 11.6875 -12.578125 C 10.84375 -12.585938 10.082031 -12.71875 9.40625 -12.96875 C 8.726562 -13.226562 8.210938 -13.503906 7.859375 -13.796875 C 6.867188 -14.578125 5.90625 -14.96875 4.96875 -14.96875 C 4.03125 -14.96875 3.140625 -14.53125 2.296875 -13.65625 C 1.460938 -12.789062 1.046875 -12.082031 1.046875 -11.53125 C 1.046875 -11.351562 1.117188 -11.265625 1.265625 -11.265625 C 1.671875 -11.265625 2.164062 -11.578125 2.75 -12.203125 C 3.332031 -12.828125 3.742188 -13.414062 3.984375 -13.96875 C 4.054688 -14.09375 4.101562 -14.15625 4.125 -14.15625 C 4.21875 -14.15625 4.265625 -14.113281 4.265625 -14.03125 Z M 4.265625 -14.03125 "/></g></g></g><g fill="#ffffff" fill-opacity="1"><g transform="translate(47.879303, 19.233873)"><g><path d="M 5.171875 -4.890625 L 5.171875 -4.921875 C 4.878906 -4.773438 4.5625 -4.425781 4.21875 -3.875 C 3.875 -3.332031 3.671875 -2.867188 3.609375 -2.484375 C 4.648438 -3.554688 5.171875 -4.359375 5.171875 -4.890625 Z M 0.546875 -0.34375 C 1.097656 -0.34375 1.988281 -0.925781 3.21875 -2.09375 L 3.21875 -2.203125 C 3.21875 -2.648438 3.4375 -3.203125 3.875 -3.859375 C 4.320312 -4.515625 4.726562 -4.941406 5.09375 -5.140625 C 5.050781 -5.179688 4.992188 -5.203125 4.921875 -5.203125 C 4.378906 -5.203125 3.488281 -4.582031 2.25 -3.34375 C 1.007812 -2.113281 0.390625 -1.160156 0.390625 -0.484375 C 0.390625 -0.390625 0.441406 -0.34375 0.546875 -0.34375 Z M -0.125 -0.65625 C -0.125 -1.738281 0.5 -2.820312 1.75 -3.90625 C 3 -4.988281 4.039062 -5.53125 4.875 -5.53125 C 5.28125 -5.53125 5.484375 -5.347656 5.484375 -4.984375 C 5.484375 -3.953125 4.929688 -2.921875 3.828125 -1.890625 C 3.910156 -1.859375 4 -1.84375 4.09375 -1.84375 C 4.5 -1.84375 5.082031 -2.097656 5.84375 -2.609375 L 5.953125 -2.390625 C 5.023438 -1.765625 4.320312 -1.453125 3.84375 -1.453125 C 3.65625 -1.453125 3.519531 -1.488281 3.4375 -1.5625 C 2.875 -1.101562 2.28125 -0.726562 1.65625 -0.4375 C 1.03125 -0.144531 0.578125 0 0.296875 0 C 0.015625 0 -0.125 -0.21875 -0.125 -0.65625 Z M -0.125 -0.65625 "/></g></g></g><g fill="#ffffff" fill-opacity="1"><g transform="translate(52.925649, 19.233873)"><g><path d="M 10.828125 -6.34375 C 10.710938 -6.34375 10.421875 -6.066406 9.953125 -5.515625 C 9.492188 -4.972656 9.054688 -4.378906 8.640625 -3.734375 C 10.140625 -5.140625 10.890625 -5.988281 10.890625 -6.28125 C 10.890625 -6.320312 10.867188 -6.34375 10.828125 -6.34375 Z M 3.734375 -5.875 C 4.097656 -5.875 4.28125 -5.816406 4.28125 -5.703125 C 4.28125 -5.660156 4.238281 -5.582031 4.15625 -5.46875 C 4.070312 -5.363281 3.679688 -4.925781 2.984375 -4.15625 C 1.054688 -2.019531 0.09375 -0.820312 0.09375 -0.5625 C 0.09375 -0.550781 0.101562 -0.546875 0.125 -0.546875 C 0.34375 -0.546875 0.957031 -0.898438 1.96875 -1.609375 C 2.988281 -2.316406 3.691406 -2.832031 4.078125 -3.15625 C 4.460938 -3.488281 4.945312 -3.960938 5.53125 -4.578125 C 6.125 -5.191406 6.453125 -5.535156 6.515625 -5.609375 C 6.578125 -5.691406 6.625 -5.757812 6.65625 -5.8125 C 6.757812 -5.925781 6.941406 -6 7.203125 -6.03125 C 7.609375 -5.976562 7.8125 -5.890625 7.8125 -5.765625 C 7.8125 -5.691406 7.742188 -5.578125 7.609375 -5.421875 C 7.046875 -4.847656 6.191406 -3.921875 5.046875 -2.640625 C 3.898438 -1.367188 3.328125 -0.585938 3.328125 -0.296875 C 3.328125 -0.242188 3.363281 -0.21875 3.4375 -0.21875 C 4.21875 -0.21875 5.660156 -1.128906 7.765625 -2.953125 C 8.203125 -3.753906 8.785156 -4.585938 9.515625 -5.453125 C 10.242188 -6.328125 10.738281 -6.765625 11 -6.765625 C 11.164062 -6.765625 11.25 -6.695312 11.25 -6.5625 C 11.25 -6.300781 10.953125 -5.832031 10.359375 -5.15625 C 9.773438 -4.488281 9.046875 -3.769531 8.171875 -3 C 7.867188 -2.507812 7.71875 -2.179688 7.71875 -2.015625 C 7.71875 -1.859375 7.789062 -1.78125 7.9375 -1.78125 C 8.332031 -1.78125 8.882812 -2.054688 9.59375 -2.609375 L 9.703125 -2.421875 C 8.785156 -1.734375 8.125 -1.390625 7.71875 -1.390625 C 7.46875 -1.390625 7.34375 -1.53125 7.34375 -1.8125 C 7.34375 -1.945312 7.40625 -2.15625 7.53125 -2.4375 C 6.625 -1.695312 5.769531 -1.082031 4.96875 -0.59375 C 4.175781 -0.113281 3.570312 0.132812 3.15625 0.15625 C 2.863281 0.15625 2.71875 0.03125 2.71875 -0.21875 C 2.71875 -0.476562 2.921875 -0.945312 3.328125 -1.625 C 3.742188 -2.3125 3.953125 -2.664062 3.953125 -2.6875 C 3.953125 -2.71875 3.945312 -2.734375 3.9375 -2.734375 C 3.894531 -2.734375 3.78125 -2.65625 3.59375 -2.5 C 3.40625 -2.34375 2.84375 -1.929688 1.90625 -1.265625 C 0.96875 -0.597656 0.394531 -0.226562 0.1875 -0.15625 C -0.0078125 -0.09375 -0.144531 -0.0625 -0.21875 -0.0625 C -0.4375 -0.0625 -0.546875 -0.210938 -0.546875 -0.515625 C -0.546875 -0.828125 -0.21875 -1.429688 0.4375 -2.328125 C 1.101562 -3.222656 1.769531 -4.035156 2.4375 -4.765625 C 3.113281 -5.503906 3.5 -5.875 3.59375 -5.875 Z M 3.734375 -5.875 "/></g></g></g><g fill="#ffffff" fill-opacity="1"><g transform="translate(61.691509, 19.233873)"><g><path d="M 0.484375 -2.125 L 0.40625 -2.390625 L 1.125 -2.84375 C 2.21875 -3.570312 2.898438 -4.082031 3.171875 -4.375 C 3.453125 -4.675781 3.617188 -4.863281 3.671875 -4.9375 C 4.046875 -5.414062 4.257812 -5.679688 4.3125 -5.734375 C 4.476562 -5.679688 4.5625 -5.507812 4.5625 -5.21875 C 4.269531 -4.800781 3.878906 -4.296875 3.390625 -3.703125 C 2.898438 -3.117188 2.492188 -2.632812 2.171875 -2.25 C 1.859375 -1.863281 1.703125 -1.640625 1.703125 -1.578125 C 1.703125 -1.523438 1.710938 -1.5 1.734375 -1.5 C 1.753906 -1.5 1.859375 -1.570312 2.046875 -1.71875 C 2.242188 -1.875 2.78125 -2.257812 3.65625 -2.875 C 5.40625 -4.09375 6.519531 -4.863281 7 -5.1875 C 7.476562 -5.507812 7.785156 -5.671875 7.921875 -5.671875 C 8.066406 -5.671875 8.140625 -5.53125 8.140625 -5.25 C 8.140625 -4.96875 7.921875 -4.539062 7.484375 -3.96875 C 7.046875 -3.40625 6.566406 -2.890625 6.046875 -2.421875 C 4.648438 -1.140625 3.953125 -0.429688 3.953125 -0.296875 C 3.953125 -0.285156 3.984375 -0.28125 4.046875 -0.28125 C 4.222656 -0.28125 5.203125 -0.851562 6.984375 -2 L 7.875 -2.59375 L 7.890625 -2.3125 C 5.554688 -0.757812 4.132812 0.015625 3.625 0.015625 C 3.539062 0.015625 3.5 -0.0234375 3.5 -0.109375 C 3.5 -0.640625 3.835938 -1.269531 4.515625 -2 C 5.191406 -2.738281 5.863281 -3.398438 6.53125 -3.984375 C 7.195312 -4.578125 7.53125 -4.96875 7.53125 -5.15625 C 7.53125 -5.1875 7.515625 -5.203125 7.484375 -5.203125 C 7.054688 -4.992188 6.078125 -4.347656 4.546875 -3.265625 C 3.023438 -2.191406 2.132812 -1.5625 1.875 -1.375 C 1.1875 -0.863281 0.820312 -0.597656 0.78125 -0.578125 C 0.75 -0.554688 0.675781 -0.476562 0.5625 -0.34375 C 0.300781 -0.0703125 0.0625 0.0625 -0.15625 0.0625 C -0.5 0.03125 -0.679688 0.0078125 -0.703125 0 C -0.710938 -0.0078125 -0.71875 -0.0234375 -0.71875 -0.046875 C -0.71875 -0.0546875 -0.59375 -0.191406 -0.34375 -0.453125 C -0.113281 -0.703125 0.113281 -0.953125 0.34375 -1.203125 C 1.113281 -2.054688 1.644531 -2.660156 1.9375 -3.015625 Z M 0.484375 -2.125 "/></g></g></g></svg>